<?xml version="1.0" encoding="utf-8"?>
<!-- Generator: Adobe Illustrator 26.3.1, SVG Export Plug-In . SVG Version: 6.00 Build 0)  -->
<svg version="1.1" id="Layer_1" xmlns="http://www.w3.org/2000/svg" xmlns:xlink="http://www.w3.org/1999/xlink" x="0px" y="0px"
	 viewBox="0 0 353.11 110.81" style="enable-background:new 0 0 353.11 110.81;" xml:space="preserve">
<style type="text/css">
	.st0{fill:#FBFBFB;}
	.st1{fill:#14213D;}
	.st2{fill:#D62828;}
	.st3{fill:none;stroke:#FFFFFF;stroke-width:3;stroke-linecap:round;stroke-linejoin:round;}
	.st4{fill:#FFFFFF;}
	.st5{fill:none;stroke:#FFFFFF;stroke-width:2;}
	.st6{fill:#EFEFEF;}
	.st7{fill:none;stroke:#14213D;stroke-width:0.5;}
	.st8{fill:none;stroke:#FFFFFF;stroke-width:3;}
	.st9{opacity:0.502;fill:#14213D;}
	.st10{fill-rule:evenodd;clip-rule:evenodd;fill:none;}
</style>
<rect x="1238.37" y="496.86" class="st0" width="1920" height="1080"/>
<rect x="604.91" y="241.21" class="st1" width="1920" height="158"/>
<text transform="matrix(1 0 0 1 2448.8242 106.944)" class="st2" style="font-family:'NotoSans-Bold'; font-size:14px;">+99</text>
<path class="st2" d="M2461.14,85.29c0.55,0,1.11,0.03,1.66,0.08c0.55,0.05,1.1,0.14,1.65,0.24s1.08,0.24,1.61,0.4
	c0.53,0.16,1.05,0.35,1.57,0.56c0.51,0.21,1.01,0.45,1.5,0.71c0.49,0.26,0.97,0.55,1.43,0.85s0.91,0.64,1.34,0.99
	c0.43,0.35,0.84,0.72,1.23,1.12c0.39,0.39,0.76,0.8,1.12,1.23c0.35,0.43,0.68,0.87,0.99,1.34c0.31,0.46,0.59,0.94,0.85,1.43
	c0.26,0.49,0.5,0.99,0.71,1.5c0.21,0.51,0.4,1.03,0.56,1.57s0.3,1.07,0.4,1.61c0.11,0.54,0.19,1.09,0.24,1.65
	c0.05,0.55,0.08,1.11,0.08,1.66s-0.03,1.11-0.08,1.66c-0.05,0.55-0.14,1.1-0.24,1.65c-0.11,0.54-0.24,1.08-0.4,1.61
	s-0.35,1.05-0.56,1.57c-0.21,0.51-0.45,1.01-0.71,1.5c-0.26,0.49-0.55,0.96-0.85,1.43s-0.64,0.91-0.99,1.34
	c-0.35,0.43-0.72,0.84-1.12,1.23c-0.39,0.39-0.8,0.76-1.23,1.12c-0.43,0.35-0.87,0.68-1.34,0.99s-0.94,0.59-1.43,0.85
	s-0.99,0.5-1.5,0.71c-0.51,0.21-1.03,0.4-1.57,0.56c-0.53,0.16-1.07,0.3-1.61,0.4s-1.09,0.19-1.65,0.24
	c-0.55,0.05-1.11,0.08-1.66,0.08s-1.11-0.03-1.66-0.08c-0.55-0.05-1.1-0.14-1.65-0.24s-1.08-0.24-1.61-0.4
	c-0.53-0.16-1.05-0.35-1.57-0.56c-0.51-0.21-1.01-0.45-1.5-0.71s-0.97-0.55-1.43-0.85s-0.91-0.64-1.34-0.99
	c-0.43-0.35-0.84-0.72-1.23-1.12c-0.39-0.39-0.76-0.8-1.12-1.23c-0.35-0.43-0.68-0.87-0.99-1.34s-0.59-0.94-0.85-1.43
	c-0.26-0.49-0.5-0.99-0.71-1.5c-0.21-0.51-0.4-1.03-0.56-1.57s-0.3-1.07-0.4-1.61c-0.11-0.54-0.19-1.09-0.24-1.65
	s-0.08-1.11-0.08-1.66s0.03-1.11,0.08-1.66s0.14-1.1,0.24-1.65c0.11-0.54,0.24-1.08,0.4-1.61s0.35-1.05,0.56-1.57
	c0.21-0.51,0.45-1.01,0.71-1.5c0.26-0.49,0.55-0.97,0.85-1.43c0.31-0.46,0.64-0.91,0.99-1.34c0.35-0.43,0.72-0.84,1.12-1.23
	c0.39-0.39,0.8-0.76,1.23-1.12c0.43-0.35,0.87-0.68,1.34-0.99s0.94-0.59,1.43-0.85c0.49-0.26,0.99-0.5,1.5-0.71
	c0.51-0.21,1.03-0.4,1.57-0.56c0.53-0.16,1.07-0.3,1.61-0.4s1.09-0.19,1.65-0.24C2460.04,85.31,2460.59,85.29,2461.14,85.29z"/>
<path class="st3" d="M2422.38,115.55l-5.45,7.26v25.42c0,2.01,1.63,3.63,3.63,3.63h25.42c2.01,0,3.63-1.63,3.63-3.63v-25.42
	l-5.45-7.26H2422.38z"/>
<line class="st3" x1="2416.94" y1="122.81" x2="2449.62" y2="122.81"/>
<path class="st3" d="M2440.54,130.07c0,4.01-3.25,7.26-7.26,7.26s-7.26-3.25-7.26-7.26"/>
<polygon class="st4" points="2454.36,100.82 2451.92,100.82 2451.92,98.44 2450.12,98.44 2450.12,100.82 2447.69,100.82 
	2447.69,102.53 2450.12,102.53 2450.12,104.91 2451.92,104.91 2451.92,102.53 2454.36,102.53 "/>
<path class="st4" d="M2459.37,101.23c-1.01,0-1.67-0.57-1.67-1.47s0.67-1.46,1.64-1.46c1.08,0,1.71,0.62,1.71,1.46
	C2461.05,100.61,2460.36,101.23,2459.37,101.23z M2459.2,96.61c-2.07,0-3.71,1.26-3.71,3.26c0,1.85,1.48,3.05,3.37,3.05
	c1.02,0,1.86-0.31,2.44-0.88c-0.07,1.89-1.13,2.86-2.76,2.86c-0.67,0-1.3-0.13-1.83-0.49l-0.84,1.67c0.69,0.43,1.68,0.67,2.72,0.67
	c2.97,0,5-1.89,5-5.28C2463.58,98.3,2461.92,96.61,2459.2,96.61z"/>
<path class="st4" d="M2468.29,101.23c-1.01,0-1.67-0.57-1.67-1.47s0.67-1.46,1.64-1.46c1.08,0,1.71,0.62,1.71,1.46
	C2469.97,100.61,2469.28,101.23,2468.29,101.23z M2468.12,96.61c-2.07,0-3.71,1.26-3.71,3.26c0,1.85,1.48,3.05,3.37,3.05
	c1.02,0,1.86-0.31,2.44-0.88c-0.07,1.89-1.13,2.86-2.76,2.86c-0.67,0-1.3-0.13-1.83-0.49l-0.84,1.67c0.69,0.43,1.68,0.67,2.72,0.67
	c2.97,0,5-1.89,5-5.28C2472.5,98.3,2470.84,96.61,2468.12,96.61z"/>
<polygon class="st4" points="2521.82,127.61 2514.32,127.61 2514.32,141.57 2521.82,141.57 2521.82,140.07 2516.14,140.07 
	2516.14,135.27 2521.22,135.27 2521.22,133.77 2516.14,133.77 2516.14,129.11 2521.82,129.11 "/>
<polygon class="st4" points="2533.72,127.61 2533.72,138.69 2526.4,127.61 2524.58,127.61 2524.58,141.57 2526.4,141.57 
	2526.4,130.47 2533.72,141.57 2535.54,141.57 2535.54,127.61 "/>
<path class="st3" d="M2379.63,151.57v-4.08c0-4.51-3.65-8.16-8.16-8.16h-16.32c-4.51,0-8.16,3.65-8.16,8.16v4.08"/>
<circle class="st3" cx="2363.31" cy="123.02" r="8.16"/>
<path class="st4" d="M1296.94,127.57c0-0.85,0.04-1.7,0.13-2.55c0.08-0.85,0.21-1.69,0.37-2.52c0.17-0.84,0.37-1.66,0.62-2.48
	s0.53-1.62,0.86-2.4c0.33-0.79,0.69-1.56,1.09-2.31c0.4-0.75,0.84-1.48,1.31-2.19c0.47-0.71,0.98-1.39,1.52-2.05
	c0.54-0.66,1.11-1.29,1.71-1.89c0.6-0.6,1.23-1.17,1.89-1.71c0.66-0.54,1.34-1.05,2.05-1.52s1.44-0.91,2.19-1.31
	c0.75-0.4,1.52-0.77,2.31-1.09c0.79-0.33,1.59-0.61,2.4-0.86c0.81-0.25,1.64-0.45,2.47-0.62c0.84-0.17,1.68-0.29,2.52-0.37
	c0.85-0.08,1.7-0.13,2.55-0.13h878c0.85,0,1.7,0.04,2.55,0.13c0.85,0.08,1.69,0.21,2.52,0.37s1.66,0.37,2.48,0.62
	c0.81,0.25,1.62,0.53,2.4,0.86c0.79,0.33,1.56,0.69,2.31,1.09c0.75,0.4,1.48,0.84,2.19,1.31s1.39,0.98,2.05,1.52
	s1.29,1.11,1.89,1.71c0.6,0.6,1.17,1.23,1.71,1.89c0.54,0.66,1.05,1.34,1.52,2.05c0.47,0.71,0.91,1.44,1.31,2.19
	c0.4,0.75,0.76,1.52,1.09,2.31c0.33,0.79,0.61,1.59,0.86,2.4c0.25,0.81,0.45,1.64,0.62,2.48c0.17,0.84,0.29,1.68,0.37,2.52
	s0.13,1.7,0.13,2.55c0,0.85-0.04,1.7-0.13,2.55c-0.08,0.85-0.21,1.69-0.37,2.52c-0.17,0.84-0.37,1.66-0.62,2.48
	c-0.25,0.81-0.53,1.62-0.86,2.4c-0.33,0.79-0.69,1.56-1.09,2.31c-0.4,0.75-0.84,1.48-1.31,2.19c-0.47,0.71-0.98,1.39-1.52,2.05
	s-1.11,1.29-1.71,1.89c-0.6,0.6-1.23,1.17-1.89,1.71c-0.66,0.54-1.34,1.05-2.05,1.52c-0.71,0.47-1.44,0.91-2.19,1.31
	c-0.75,0.4-1.52,0.77-2.31,1.09c-0.79,0.33-1.59,0.61-2.4,0.86c-0.81,0.25-1.64,0.45-2.48,0.62c-0.84,0.17-1.68,0.29-2.52,0.37
	c-0.85,0.08-1.7,0.13-2.55,0.13h-878c-0.85,0-1.7-0.04-2.55-0.13c-0.85-0.08-1.69-0.21-2.52-0.37c-0.84-0.17-1.66-0.37-2.47-0.62
	c-0.81-0.25-1.62-0.53-2.4-0.86c-0.79-0.33-1.56-0.69-2.31-1.09c-0.75-0.4-1.48-0.84-2.19-1.31c-0.71-0.47-1.39-0.98-2.05-1.52
	c-0.66-0.54-1.29-1.11-1.89-1.71s-1.17-1.23-1.71-1.89s-1.05-1.34-1.52-2.05c-0.47-0.71-0.91-1.44-1.31-2.19
	c-0.4-0.75-0.77-1.52-1.09-2.31c-0.33-0.79-0.61-1.59-0.86-2.4c-0.25-0.81-0.45-1.64-0.62-2.48c-0.17-0.84-0.29-1.68-0.37-2.52
	C1296.98,129.28,1296.94,128.43,1296.94,127.57z"/>
<path class="st5" d="M1296.94,127.57c0-0.85,0.04-1.7,0.13-2.55c0.08-0.85,0.21-1.69,0.37-2.52c0.17-0.84,0.37-1.66,0.62-2.48
	s0.53-1.62,0.86-2.4c0.33-0.79,0.69-1.56,1.09-2.31c0.4-0.75,0.84-1.48,1.31-2.19c0.47-0.71,0.98-1.39,1.52-2.05
	c0.54-0.66,1.11-1.29,1.71-1.89c0.6-0.6,1.23-1.17,1.89-1.71c0.66-0.54,1.34-1.05,2.05-1.52s1.44-0.91,2.19-1.31
	c0.75-0.4,1.52-0.77,2.31-1.09c0.79-0.33,1.59-0.61,2.4-0.86c0.81-0.25,1.64-0.45,2.47-0.62c0.84-0.17,1.68-0.29,2.52-0.37
	c0.85-0.08,1.7-0.13,2.55-0.13h878c0.85,0,1.7,0.04,2.55,0.13c0.85,0.08,1.69,0.21,2.52,0.37s1.66,0.37,2.48,0.62
	c0.81,0.25,1.62,0.53,2.4,0.86c0.79,0.33,1.56,0.69,2.31,1.09c0.75,0.4,1.48,0.84,2.19,1.31s1.39,0.98,2.05,1.52
	s1.29,1.11,1.89,1.71c0.6,0.6,1.17,1.23,1.71,1.89c0.54,0.66,1.05,1.34,1.52,2.05c0.47,0.71,0.91,1.44,1.31,2.19
	c0.4,0.75,0.76,1.52,1.09,2.31c0.33,0.79,0.61,1.59,0.86,2.4c0.25,0.81,0.45,1.64,0.62,2.48c0.17,0.84,0.29,1.68,0.37,2.52
	s0.13,1.7,0.13,2.55c0,0.85-0.04,1.7-0.13,2.55c-0.08,0.85-0.21,1.69-0.37,2.52c-0.17,0.84-0.37,1.66-0.62,2.48
	c-0.25,0.81-0.53,1.62-0.86,2.4c-0.33,0.79-0.69,1.56-1.09,2.31c-0.4,0.75-0.84,1.48-1.31,2.19c-0.47,0.71-0.98,1.39-1.52,2.05
	s-1.11,1.29-1.71,1.89c-0.6,0.6-1.23,1.17-1.89,1.71c-0.66,0.54-1.34,1.05-2.05,1.52c-0.71,0.47-1.44,0.91-2.19,1.31
	c-0.75,0.4-1.52,0.77-2.31,1.09c-0.79,0.33-1.59,0.61-2.4,0.86c-0.81,0.25-1.64,0.45-2.48,0.62c-0.84,0.17-1.68,0.29-2.52,0.37
	c-0.85,0.08-1.7,0.13-2.55,0.13h-878c-0.85,0-1.7-0.04-2.55-0.13c-0.85-0.08-1.69-0.21-2.52-0.37c-0.84-0.17-1.66-0.37-2.47-0.62
	c-0.81-0.25-1.62-0.53-2.4-0.86c-0.79-0.33-1.56-0.69-2.31-1.09c-0.75-0.4-1.48-0.84-2.19-1.31c-0.71-0.47-1.39-0.98-2.05-1.52
	c-0.66-0.54-1.29-1.11-1.89-1.71s-1.17-1.23-1.71-1.89s-1.05-1.34-1.52-2.05c-0.47-0.71-0.91-1.44-1.31-2.19
	c-0.4-0.75-0.77-1.52-1.09-2.31c-0.33-0.79-0.61-1.59-0.86-2.4c-0.25-0.81-0.45-1.64-0.62-2.48c-0.17-0.84-0.29-1.68-0.37-2.52
	C1296.98,129.28,1296.94,128.43,1296.94,127.57z"/>
<path class="st2" d="M2200.94,100.57c14.91,0,27,12.09,27,27s-12.09,27-27,27h-137v-54H2200.94z"/>
<path class="st6" d="M1322.94,154.57c-14.91,0-27-12.09-27-27s12.09-27,27-27h124v54H1322.94z"/>
<path class="st7" d="M1322.94,154.57c-14.91,0-27-12.09-27-27s12.09-27,27-27h124v54H1322.94z"/>
<path class="st8" d="M2524.94,116.07c0.61,0,1.21,0.03,1.81,0.09c0.6,0.06,1.2,0.15,1.8,0.27c0.59,0.12,1.18,0.27,1.76,0.44
	c0.58,0.18,1.15,0.38,1.71,0.61c0.56,0.23,1.11,0.49,1.64,0.78s1.05,0.6,1.56,0.93c0.5,0.34,0.99,0.7,1.46,1.08
	c0.47,0.38,0.92,0.79,1.35,1.22s0.83,0.88,1.22,1.35c0.38,0.47,0.74,0.95,1.08,1.46s0.65,1.02,0.93,1.56
	c0.29,0.53,0.54,1.08,0.78,1.64c0.23,0.56,0.44,1.13,0.61,1.71c0.18,0.58,0.32,1.17,0.44,1.76c0.12,0.59,0.21,1.19,0.27,1.8
	c0.06,0.6,0.09,1.21,0.09,1.81s-0.03,1.21-0.09,1.81c-0.06,0.6-0.15,1.2-0.27,1.8c-0.12,0.59-0.27,1.18-0.44,1.76
	c-0.18,0.58-0.38,1.15-0.61,1.71c-0.23,0.56-0.49,1.11-0.78,1.64s-0.6,1.05-0.93,1.56s-0.7,0.99-1.08,1.46
	c-0.38,0.47-0.79,0.92-1.22,1.35c-0.43,0.43-0.88,0.83-1.35,1.22c-0.47,0.38-0.95,0.74-1.46,1.08c-0.5,0.34-1.02,0.65-1.56,0.93
	c-0.53,0.29-1.08,0.54-1.64,0.78s-1.13,0.44-1.71,0.61s-1.17,0.32-1.76,0.44c-0.59,0.12-1.19,0.21-1.8,0.27
	c-0.6,0.06-1.21,0.09-1.81,0.09c-0.61,0-1.21-0.03-1.81-0.09c-0.6-0.06-1.2-0.15-1.8-0.27c-0.59-0.12-1.18-0.27-1.76-0.44
	s-1.15-0.38-1.71-0.61s-1.11-0.49-1.64-0.78c-0.53-0.29-1.05-0.6-1.56-0.93c-0.5-0.34-0.99-0.7-1.46-1.08
	c-0.47-0.38-0.92-0.79-1.35-1.22c-0.43-0.43-0.83-0.88-1.22-1.35c-0.38-0.47-0.74-0.95-1.08-1.46s-0.65-1.02-0.93-1.56
	s-0.54-1.08-0.78-1.64c-0.23-0.56-0.44-1.13-0.61-1.71c-0.18-0.58-0.32-1.17-0.44-1.76c-0.12-0.59-0.21-1.19-0.27-1.8
	c-0.06-0.6-0.09-1.21-0.09-1.81s0.03-1.21,0.09-1.81c0.06-0.6,0.15-1.2,0.27-1.8c0.12-0.59,0.27-1.18,0.44-1.76
	c0.18-0.58,0.38-1.15,0.61-1.71c0.23-0.56,0.49-1.11,0.78-1.64c0.29-0.53,0.6-1.05,0.93-1.56s0.7-0.99,1.08-1.46
	c0.38-0.47,0.79-0.92,1.22-1.35s0.88-0.83,1.35-1.22c0.47-0.38,0.95-0.74,1.46-1.08c0.5-0.34,1.02-0.65,1.56-0.93
	s1.08-0.54,1.64-0.78c0.56-0.23,1.13-0.44,1.71-0.61c0.58-0.18,1.17-0.32,1.76-0.44c0.59-0.12,1.19-0.21,1.8-0.27
	C2523.73,116.1,2524.33,116.07,2524.94,116.07z"/>
<path class="st4" d="M2139.41,131.53c0-5.72-8.45-2.99-8.45-7.44c0-1.78,1.5-2.77,3.3-2.75c2.13,0.02,3.17,1.34,3.34,2.42h1.67
	c-0.26-2.11-2.02-3.74-4.95-3.74c-2.97,0-4.93,1.74-4.93,4.11c0,5.79,8.45,2.93,8.45,7.46c0,1.58-1.25,2.84-3.39,2.84
	c-2.49,0-3.43-1.54-3.56-2.82h-1.63c0.09,2.35,2.11,4.11,5.19,4.11C2137.72,135.73,2139.41,133.62,2139.41,131.53z"/>
<path class="st4" d="M2153.74,131.77h-1.63c-0.44,1.61-1.83,2.68-3.87,2.68c-2.24,0-4.2-1.47-4.33-4.29h9.97
	c0.04-0.42,0.04-0.73,0.04-1.21c0-3.06-2.16-5.57-5.68-5.57c-3.45,0-5.9,2.35-5.9,6.18c0,3.81,2.49,6.18,5.9,6.18
	C2151.25,135.75,2153.19,134.03,2153.74,131.77z M2148.17,124.71c2.22,0,4.25,1.41,4.18,4.2h-8.45
	C2144.08,126.11,2145.99,124.71,2148.17,124.71z"/>
<path class="st4" d="M2167.18,129.57c0,2.99-2,4.84-4.47,4.84c-2.53,0-4.47-1.83-4.47-4.86c0-3.06,1.94-4.82,4.47-4.82
	C2165.18,124.73,2167.18,126.58,2167.18,129.57z M2156.68,129.55c0,3.76,2.44,6.2,5.72,6.2c2.4,0,4.07-1.3,4.77-2.84v2.66h1.54
	v-12.01h-1.54v2.64c-0.68-1.52-2.33-2.82-4.75-2.82C2159.13,123.39,2156.68,125.78,2156.68,129.55z"/>
<path class="st4" d="M2174.44,128.86c0-3.01,1.69-3.92,3.7-3.92h0.42v-1.61c-2.07,0-3.45,0.88-4.11,2.35v-2.13h-1.54v12.01h1.54
	V128.86z"/>
<path class="st4" d="M2180.82,129.57c0,3.81,2.44,6.18,5.83,6.18c3.01,0,4.97-1.69,5.52-4.09h-1.65c-0.42,1.76-1.85,2.79-3.87,2.79
	c-2.35,0-4.27-1.63-4.27-4.88c0-3.26,1.91-4.86,4.27-4.86c2.02,0,3.48,1.06,3.87,2.77h1.65c-0.55-2.49-2.51-4.09-5.52-4.09
	C2183.26,123.39,2180.82,125.76,2180.82,129.57z"/>
<path class="st4" d="M2195.67,135.57h1.54v-6.56c0-2.93,1.56-4.33,3.81-4.33c2.2,0,3.65,1.36,3.65,4.03v6.86h1.52v-7.04
	c0-3.52-2.13-5.19-4.8-5.19c-1.83,0-3.41,0.79-4.18,2.27v-6.31h-1.54V135.57z"/>
<path class="st1" d="M1316.55,127.87c0,4.62,3.26,7.83,7.52,7.83c3.43,0,5.98-1.72,7.08-4.62h-1.8c-0.86,2-2.66,3.28-5.28,3.28
	c-3.37,0-5.94-2.49-5.94-6.49c0-4.03,2.57-6.51,5.94-6.51c2.62,0,4.42,1.28,5.28,3.32h1.8c-1.1-2.95-3.65-4.66-7.08-4.66
	C1319.81,120.02,1316.55,123.25,1316.55,127.87z"/>
<path class="st1" d="M1344.67,129.57c0,2.99-2,4.84-4.47,4.84c-2.53,0-4.47-1.83-4.47-4.86c0-3.06,1.94-4.82,4.47-4.82
	C1342.67,124.73,1344.67,126.58,1344.67,129.57z M1334.18,129.55c0,3.76,2.44,6.2,5.72,6.2c2.4,0,4.07-1.3,4.77-2.84v2.66h1.54
	v-12.01h-1.54v2.64c-0.68-1.52-2.33-2.82-4.75-2.82C1336.62,123.39,1334.18,125.78,1334.18,129.55z"/>
<path class="st1" d="M1350.83,132.32c0,2.4,1.12,3.26,3.21,3.26h1.65v-1.32h-1.41c-1.39,0-1.89-0.46-1.89-1.94v-7.46h3.3v-1.3h-3.3
	v-3.01h-1.56v3.01h-1.67v1.3h1.67V132.32z"/>
<path class="st1" d="M1369.57,131.77h-1.63c-0.44,1.61-1.83,2.68-3.87,2.68c-2.24,0-4.2-1.47-4.33-4.29h9.97
	c0.04-0.42,0.04-0.73,0.04-1.21c0-3.06-2.16-5.57-5.68-5.57c-3.45,0-5.9,2.35-5.9,6.18c0,3.81,2.49,6.18,5.9,6.18
	C1367.09,135.75,1369.02,134.03,1369.57,131.77z M1364.01,124.71c2.22,0,4.25,1.41,4.18,4.2h-8.45
	C1359.92,126.11,1361.83,124.71,1364.01,124.71z"/>
<path class="st1" d="M1383.02,129.57c0,2.99-2,4.84-4.47,4.84c-2.53,0-4.47-1.83-4.47-4.86c0-3.06,1.94-4.82,4.47-4.82
	C1381.01,124.73,1383.02,126.58,1383.02,129.57z M1372.52,129.55c0,3.76,2.44,6.2,5.74,6.2c2.38,0,4.05-1.3,4.75-2.84v2.97
	c0,2.73-1.78,4.25-4.07,4.25c-2.2,0-3.72-1.12-4.22-2.75h-1.52c0.48,2.51,2.64,4.09,5.74,4.09c3.3,0,5.61-2.22,5.61-5.59v-12.32
	h-1.54v2.62c-0.68-1.52-2.38-2.79-4.75-2.79C1374.96,123.39,1372.52,125.78,1372.52,129.55z"/>
<path class="st1" d="M1389.59,129.57c0-3.3,2.13-4.84,4.42-4.84c2.29,0,4.44,1.54,4.44,4.84c0,3.3-2.2,4.84-4.47,4.84
	C1391.71,134.41,1389.59,132.87,1389.59,129.57z M1400.04,129.57c0-3.83-2.62-6.18-6.01-6.18c-3.37,0-6.01,2.35-6.01,6.18
	c0,3.81,2.57,6.18,5.96,6.18C1397.38,135.75,1400.04,133.37,1400.04,129.57z"/>
<path class="st1" d="M1405.06,128.86c0-3.01,1.69-3.92,3.7-3.92h0.42v-1.61c-2.07,0-3.45,0.88-4.11,2.35v-2.13h-1.54v12.01h1.54
	V128.86z"/>
<polygon class="st1" points="1416.5,133.81 1412.41,123.56 1410.71,123.56 1415.64,135.51 1413.31,141.23 1414.92,141.23 
	1422.04,123.56 1420.46,123.56 "/>
<g>
	<polygon class="st9" points="1467.61,135.6 1469.28,135.57 1473.24,122.46 1477.11,135.57 1478.83,135.57 1483.18,120.2 
		1481.53,120.2 1477.99,133.68 1474.16,120.2 1472.45,120.2 1468.51,133.68 1464.99,120.2 1463.34,120.2 	"/>
	<path class="st9" d="M1486.2,135.57h1.54v-6.56c0-2.93,1.56-4.33,3.81-4.33c2.2,0,3.65,1.36,3.65,4.03v6.86h1.52v-7.04
		c0-3.52-2.13-5.19-4.8-5.19c-1.83,0-3.41,0.79-4.18,2.27v-6.31h-1.54V135.57z"/>
	<path class="st9" d="M1510.57,129.57c0,2.99-2,4.84-4.47,4.84c-2.53,0-4.47-1.83-4.47-4.86c0-3.06,1.94-4.82,4.47-4.82
		C1508.57,124.73,1510.57,126.58,1510.57,129.57z M1500.08,129.55c0,3.76,2.44,6.2,5.72,6.2c2.4,0,4.07-1.3,4.77-2.84v2.66h1.54
		v-12.01h-1.54v2.64c-0.68-1.52-2.33-2.82-4.75-2.82C1502.52,123.39,1500.08,125.78,1500.08,129.55z"/>
	<path class="st9" d="M1516.73,132.32c0,2.4,1.12,3.26,3.21,3.26h1.65v-1.32h-1.41c-1.39,0-1.89-0.46-1.89-1.94v-7.46h3.3v-1.3h-3.3
		v-3.01h-1.56v3.01h-1.67v1.3h1.67V132.32z"/>
	<path class="st9" d="M1541.26,129.57c0,2.99-2,4.84-4.47,4.84c-2.53,0-4.47-1.83-4.47-4.86c0-3.06,1.94-4.82,4.47-4.82
		C1539.26,124.73,1541.26,126.58,1541.26,129.57z M1530.77,129.55c0,3.76,2.44,6.2,5.72,6.2c2.4,0,4.07-1.3,4.77-2.84v2.66h1.54
		v-12.01h-1.54v2.64c-0.68-1.52-2.33-2.82-4.75-2.82C1533.21,123.39,1530.77,125.78,1530.77,129.55z"/>
	<path class="st9" d="M1548.52,128.86c0-3.01,1.69-3.92,3.7-3.92h0.42v-1.61c-2.07,0-3.45,0.88-4.11,2.35v-2.13h-1.54v12.01h1.54
		V128.86z"/>
	<path class="st9" d="M1566.3,131.77h-1.63c-0.44,1.61-1.83,2.68-3.87,2.68c-2.24,0-4.2-1.47-4.33-4.29h9.97
		c0.04-0.42,0.04-0.73,0.04-1.21c0-3.06-2.16-5.57-5.68-5.57c-3.45,0-5.9,2.35-5.9,6.18c0,3.81,2.49,6.18,5.9,6.18
		C1563.81,135.75,1565.75,134.03,1566.3,131.77z M1560.73,124.71c2.22,0,4.25,1.41,4.18,4.2h-8.45
		C1556.64,126.11,1558.56,124.71,1560.73,124.71z"/>
	<polygon class="st9" points="1581,133.81 1576.9,123.56 1575.21,123.56 1580.14,135.51 1577.81,141.23 1579.41,141.23 
		1586.54,123.56 1584.96,123.56 	"/>
	<path class="st9" d="M1590.15,129.57c0-3.3,2.13-4.84,4.42-4.84s4.44,1.54,4.44,4.84c0,3.3-2.2,4.84-4.47,4.84
		C1592.26,134.41,1590.15,132.87,1590.15,129.57z M1600.6,129.57c0-3.83-2.62-6.18-6.01-6.18c-3.37,0-6.01,2.35-6.01,6.18
		c0,3.81,2.57,6.18,5.96,6.18C1597.94,135.75,1600.6,133.37,1600.6,129.57z"/>
	<path class="st9" d="M1614.48,123.56h-1.54v6.53c0,2.93-1.56,4.33-3.81,4.33c-2.2,0-3.65-1.36-3.65-4.03v-6.84h-1.52v7.02
		c0,3.52,2.16,5.19,4.88,5.19c1.78,0,3.37-0.79,4.09-2.31v2.11h1.54V123.56z"/>
	<rect x="1625.35" y="119.29" class="st9" width="1.54" height="16.28"/>
	<path class="st9" d="M1631.9,129.57c0-3.3,2.13-4.84,4.42-4.84s4.44,1.54,4.44,4.84c0,3.3-2.2,4.84-4.47,4.84
		C1634.02,134.41,1631.9,132.87,1631.9,129.57z M1642.35,129.57c0-3.83-2.62-6.18-6.01-6.18c-3.37,0-6.01,2.35-6.01,6.18
		c0,3.81,2.57,6.18,5.96,6.18C1639.69,135.75,1642.35,133.37,1642.35,129.57z"/>
	<path class="st9" d="M1646.69,129.57c0-3.3,2.13-4.84,4.42-4.84c2.29,0,4.44,1.54,4.44,4.84c0,3.3-2.2,4.84-4.47,4.84
		C1648.8,134.41,1646.69,132.87,1646.69,129.57z M1657.14,129.57c0-3.83-2.62-6.18-6.01-6.18c-3.37,0-6.01,2.35-6.01,6.18
		c0,3.81,2.57,6.18,5.96,6.18C1654.48,135.75,1657.14,133.37,1657.14,129.57z"/>
	<polygon class="st9" points="1660.61,135.57 1662.15,135.57 1662.15,130.18 1667.1,135.57 1669.19,135.57 1663.45,129.55 
		1669.15,123.56 1666.99,123.56 1662.15,128.93 1662.15,119.29 1660.61,119.29 	"/>
	<path class="st9" d="M1672.6,121.3c0.62,0,1.12-0.48,1.12-1.14c0-0.66-0.51-1.12-1.12-1.12c-0.62,0-1.12,0.46-1.12,1.12
		C1671.48,120.81,1671.99,121.3,1672.6,121.3z M1671.83,135.57h1.54v-12.01h-1.54V135.57z"/>
	<path class="st9" d="M1686.53,135.57h1.52v-7.04c0-3.52-2.16-5.19-4.88-5.19c-1.78,0-3.32,0.77-4.09,2.27v-2.05h-1.54v12.01h1.54
		v-6.56c0-2.93,1.56-4.33,3.81-4.33c2.2,0,3.65,1.36,3.65,4.03V135.57z"/>
	<path class="st9" d="M1701.91,129.57c0,2.99-2,4.84-4.47,4.84c-2.53,0-4.47-1.83-4.47-4.86c0-3.06,1.94-4.82,4.47-4.82
		C1699.91,124.73,1701.91,126.58,1701.91,129.57z M1691.41,129.55c0,3.76,2.44,6.2,5.74,6.2c2.38,0,4.05-1.3,4.75-2.84v2.97
		c0,2.73-1.78,4.25-4.07,4.25c-2.2,0-3.72-1.12-4.22-2.75h-1.52c0.48,2.51,2.64,4.09,5.74,4.09c3.3,0,5.61-2.22,5.61-5.59v-12.32
		h-1.54v2.62c-0.68-1.52-2.38-2.79-4.75-2.79C1693.86,123.39,1691.41,125.78,1691.41,129.55z"/>
	<path class="st9" d="M1714.71,135.57h1.54v-10.71h2.79v-1.3h-2.79v-0.84c0-1.74,0.66-2.49,2.71-2.49v-1.32
		c-3.04,0-4.25,1.23-4.25,3.81v0.84h-1.67v1.3h1.67V135.57z"/>
	<path class="st9" d="M1722.98,129.57c0-3.3,2.13-4.84,4.42-4.84c2.29,0,4.44,1.54,4.44,4.84c0,3.3-2.2,4.84-4.47,4.84
		C1725.1,134.41,1722.98,132.87,1722.98,129.57z M1733.43,129.57c0-3.83-2.62-6.18-6.01-6.18c-3.37,0-6.01,2.35-6.01,6.18
		c0,3.81,2.57,6.18,5.96,6.18C1730.77,135.75,1733.43,133.37,1733.43,129.57z"/>
	<path class="st9" d="M1738.45,128.86c0-3.01,1.69-3.92,3.7-3.92h0.42v-1.61c-2.07,0-3.45,0.88-4.11,2.35v-2.13h-1.54v12.01h1.54
		V128.86z"/>
	<path class="st9" d="M1746.9,134.54c0-0.64-0.48-1.12-1.1-1.12c-0.64,0-1.12,0.48-1.12,1.12s0.48,1.14,1.12,1.14
		C1746.41,135.68,1746.9,135.18,1746.9,134.54z"/>
	<path class="st9" d="M1751.56,134.54c0-0.64-0.48-1.12-1.1-1.12c-0.64,0-1.12,0.48-1.12,1.12s0.48,1.14,1.12,1.14
		C1751.08,135.68,1751.56,135.18,1751.56,134.54z"/>
	<path class="st9" d="M1756.23,134.54c0-0.64-0.48-1.12-1.1-1.12c-0.64,0-1.12,0.48-1.12,1.12s0.48,1.14,1.12,1.14
		C1755.74,135.68,1756.23,135.18,1756.23,134.54z"/>
</g>
<path class="st4" d="M2103.7,133.78c-2.26,0-4.38-0.88-5.98-2.48c-1.6-1.6-2.47-3.72-2.47-5.97c0-2.26,0.88-4.38,2.47-5.97
	c1.6-1.6,3.72-2.48,5.98-2.48c2.26,0,4.38,0.88,5.98,2.48c1.6,1.6,2.48,3.72,2.48,5.97c0,2.26-0.88,4.38-2.48,5.97
	C2108.08,132.9,2105.96,133.78,2103.7,133.78z M2119.62,139.62l-7.51-7.58c1.47-1.84,2.36-4.18,2.36-6.71
	c0-5.94-4.82-10.76-10.76-10.76c-5.95,0-10.76,4.82-10.76,10.76c0,5.94,4.82,10.76,10.76,10.76c2.57,0,4.93-0.9,6.79-2.4l7.46,7.53
	c0.23,0.24,0.53,0.36,0.84,0.36c0.29,0,0.58-0.11,0.79-0.32C2120.04,140.82,2120.06,140.09,2119.62,139.62z"/>
<polygon class="st1" points="1432.94,134.57 1427.94,127.57 1437.94,127.57 "/>
<rect x="730.94" y="-12.43" class="st2" width="1920" height="58"/>
<path class="st4" d="M2504.94,16.68c0-9.63-7.8-17.44-17.44-17.44s-17.44,7.8-17.44,17.44c0,8.7,6.38,15.92,14.71,17.23V21.72h-4.43
	v-5.04h4.43v-3.84c0-4.37,2.6-6.78,6.59-6.78c1.91,0,3.9,0.34,3.9,0.34v4.29h-2.2c-2.17,0-2.84,1.34-2.84,2.72v3.27h4.84l-0.77,5.04
	h-4.06v12.19C2498.56,32.6,2504.94,25.38,2504.94,16.68z"/>
<path class="st4" d="M2444.59,27.44c-0.55,1.38-1.61,2.44-3,3c-2.07,0.82-7,0.63-9.29,0.63s-7.22,0.18-9.29-0.63
	c-1.38-0.55-2.44-1.61-3-3c-0.82-2.07-0.63-7-0.63-9.29c0-2.29-0.18-7.22,0.63-9.29c0.55-1.38,1.61-2.44,3-3
	c2.07-0.82,7-0.63,9.29-0.63s7.22-0.18,9.29,0.63c1.38,0.55,2.44,1.61,3,3c0.82,2.07,0.63,7,0.63,9.29
	C2445.22,20.44,2445.41,25.37,2444.59,27.44z M2447.95,11.65c-0.12-2.52-0.7-4.76-2.55-6.6c-1.84-1.84-4.08-2.42-6.6-2.55
	c-2.6-0.15-10.4-0.15-13,0c-2.52,0.12-4.75,0.7-6.6,2.54c-1.85,1.84-2.42,4.08-2.55,6.6c-0.15,2.6-0.15,10.4,0,13
	c0.12,2.52,0.7,4.76,2.55,6.6c1.85,1.84,4.08,2.42,6.6,2.55c2.6,0.15,10.4,0.15,13,0c2.52-0.12,4.76-0.7,6.6-2.55
	c1.84-1.84,2.42-4.08,2.55-6.6C2448.1,22.05,2448.1,14.26,2447.95,11.65L2447.95,11.65z M2442.6,9.74c0,1.05-0.84,1.88-1.88,1.88
	c-1.05,0-1.88-0.84-1.88-1.88s0.84-1.88,1.88-1.88C2441.76,7.86,2442.6,8.7,2442.6,9.74z M2432.31,23.4c-2.89,0-5.25-2.36-5.25-5.25
	s2.36-5.25,5.25-5.25c2.9,0,5.25,2.36,5.25,5.25S2435.2,23.4,2432.31,23.4L2432.31,23.4z M2432.31,10.07
	c-4.47,0-8.08,3.61-8.08,8.08c0,4.47,3.61,8.08,8.08,8.08s8.08-3.61,8.08-8.08C2440.38,13.68,2436.78,10.07,2432.31,10.07z"/>
<path class="st4" d="M2559.24,11.95c0.02,0.32,0.02,0.64,0.02,0.96c0,9.75-7.42,20.99-20.99,20.99c-4.18,0-8.06-1.21-11.33-3.31
	c0.59,0.07,1.17,0.09,1.78,0.09c3.45,0,6.62-1.16,9.16-3.15c-3.24-0.07-5.96-2.19-6.9-5.12c0.46,0.07,0.91,0.11,1.39,0.11
	c0.66,0,1.32-0.09,1.94-0.25c-3.38-0.69-5.92-3.65-5.92-7.24v-0.09c0.98,0.55,2.12,0.89,3.33,0.94c-1.99-1.32-3.29-3.59-3.29-6.14
	c0-1.37,0.37-2.63,1-3.72c3.63,4.48,9.09,7.4,15.21,7.72c-0.11-0.55-0.18-1.12-0.18-1.69c0-4.07,3.29-7.38,7.38-7.38
	c2.12,0,4.04,0.89,5.39,2.33c1.67-0.32,3.27-0.94,4.68-1.78c-0.55,1.71-1.71,3.15-3.24,4.07c1.48-0.16,2.92-0.57,4.25-1.14
	C2561.93,9.6,2560.67,10.9,2559.24,11.95L2559.24,11.95z"/>
<path class="st4" d="M882.92,27.32h12.35v-2.9h-7.38c2.9-2.45,6.97-5.75,6.97-9.97c0-3.18-1.97-5.5-5.9-5.5
	c-3.27,0-5.95,1.93-6.07,6.1h3.4c0.03-1.92,0.95-3.12,2.62-3.12c1.73,0,2.45,1.1,2.45,2.72c0,3.35-4.33,6.58-8.45,10.08V27.32z"/>
<path class="st4" d="M901.92,20.97l5.12-7.65v7.65H901.92z M906.82,27.57h3.5v-3.55h2.2v-3.05h-2.2V9.57h-4.08l-8.17,11.7v2.75h8.75
	V27.57z"/>
<path class="st4" d="M919.2,20.97l5.12-7.65v7.65H919.2z M924.1,27.57h3.5v-3.55h2.2v-3.05h-2.2V9.57h-4.07l-8.18,11.7v2.75h8.75
	V27.57z"/>
<path class="st4" d="M940.42,9.3V20h3.35c0.38-1.12,1.3-1.93,2.75-1.93c1.97,0,3,1.12,3,3.18c0,1.92-0.93,3.38-2.98,3.38
	c-1.7,0-2.72-0.93-3.02-2.2h-3.4c0.3,2.97,2.55,5.15,6.47,5.15c4.15,0,6.3-2.65,6.3-6.38c0-2.82-1.45-6.03-5.7-6.03
	c-1.53,0-2.9,0.65-3.58,1.47v-4.27h8.1V9.3H940.42z"/>
<path class="st4" d="M960.02,20.97l5.12-7.65v7.65H960.02z M964.92,27.57h3.5v-3.55h2.2v-3.05h-2.2V9.57h-4.07l-8.18,11.7v2.75h8.75
	V27.57z"/>
<path class="st4" d="M973.4,27.32h12.35v-2.9h-7.38c2.9-2.45,6.97-5.75,6.97-9.97c0-3.18-1.97-5.5-5.9-5.5
	c-3.28,0-5.95,1.93-6.08,6.1h3.4c0.02-1.92,0.95-3.12,2.62-3.12c1.72,0,2.45,1.1,2.45,2.72c0,3.35-4.32,6.58-8.45,10.08V27.32z"/>
<path class="st4" d="M999.1,20.97l5.12-7.65v7.65H999.1z M1004,27.57h3.5v-3.55h2.2v-3.05h-2.2V9.57h-4.07l-8.18,11.7v2.75h8.75
	V27.57z"/>
<path class="st4" d="M1016.37,20.97l5.12-7.65v7.65H1016.37z M1021.27,27.57h3.5v-3.55h2.2v-3.05h-2.2V9.57h-4.08l-8.17,11.7v2.75
	h8.75V27.57z"/>
<path class="st4" d="M1029.75,27.32h12.35v-2.9h-7.38c2.9-2.45,6.98-5.75,6.98-9.97c0-3.18-1.98-5.5-5.9-5.5
	c-3.28,0-5.95,1.93-6.08,6.1h3.4c0.03-1.92,0.95-3.12,2.62-3.12c1.72,0,2.45,1.1,2.45,2.72c0,3.35-4.33,6.58-8.45,10.08V27.32z"/>
<path class="st4" d="M1044.85,27.32h12.35v-2.9h-7.38c2.9-2.45,6.97-5.75,6.97-9.97c0-3.18-1.97-5.5-5.9-5.5
	c-3.28,0-5.95,1.93-6.07,6.1h3.4c0.03-1.92,0.95-3.12,2.62-3.12c1.73,0,2.45,1.1,2.45,2.72c0,3.35-4.33,6.58-8.45,10.08V27.32z"/>
<path class="st4" d="M842.41,7.52L842.41,7.52c-0.06,0-0.13,0.01-0.19,0.02l-3.68,0.85c-0.39,0.09-0.66,0.43-0.66,0.83
	c0,9.05,7.36,16.41,16.41,16.41c0.4,0,0.74-0.27,0.83-0.66l0.85-3.68c0.09-0.4-0.12-0.81-0.49-0.98l-3.96-1.7
	c-0.11-0.05-0.22-0.07-0.33-0.07c-0.26,0-0.5,0.11-0.66,0.31l-1.76,2.14c-2.75-1.3-4.97-3.52-6.27-6.27l2.14-1.76
	c0.29-0.24,0.39-0.64,0.24-0.99l-1.7-3.96C843.05,7.72,842.75,7.52,842.41,7.52L842.41,7.52z M846.94,34.07
	c-4.67,0-9.07-1.82-12.37-5.13c-3.31-3.31-5.13-7.7-5.13-12.37s1.82-9.07,5.13-12.37c3.31-3.31,7.7-5.13,12.37-5.13
	c4.67,0,9.07,1.82,12.37,5.13c3.31,3.31,5.13,7.7,5.13,12.37s-1.82,9.07-5.13,12.37C856.01,32.25,851.61,34.07,846.94,34.07z"/>
<rect x="730.94" y="-12.43" class="st10" width="1920" height="1080"/>
<g>
	<g>
		<path class="st4" d="M149.31,49.42c0-3.44-2.28-6.54-5.81-7.27c2.92-0.86,5.12-3.23,5.12-6.88c0-4.77-3.65-7.83-9.8-7.83h-13.59
			v30.19h14.06C145.65,57.63,149.31,54.4,149.31,49.42z M141.14,36.52c0,2.06-1.33,3.14-3.74,3.14h-4.82v-6.32h4.82
			C139.8,33.33,141.14,34.45,141.14,36.52z M141.87,48.43c0,2.15-1.42,3.27-3.87,3.27h-5.42v-6.66h5.33
			C140.36,45.03,141.87,46.28,141.87,48.43z"/>
		<polygon class="st4" points="172.05,27.44 153.56,27.44 153.56,57.63 172.05,57.63 172.05,51.74 160.92,51.74 160.92,45.12 
			170.76,45.12 170.76,39.44 160.92,39.44 160.92,33.33 172.05,33.33 		"/>
		<path class="st4" d="M198.76,48.64c0-10.1-14.92-7.74-14.92-12.99c0-1.89,1.33-2.79,3.1-2.75c1.98,0.04,3.35,1.2,3.48,3.14h7.96
			c-0.3-5.76-4.73-9.03-11.31-9.03c-6.32,0-11.01,3.18-11.01,8.9c-0.09,10.71,15.01,7.7,15.01,13.29c0,1.76-1.38,2.84-3.53,2.84
			c-2.06,0-3.53-1.12-3.74-3.44h-7.83c0.21,6.11,5.29,9.33,11.78,9.33C194.8,57.93,198.76,53.72,198.76,48.64z"/>
		<polygon class="st4" points="201.64,33.33 209.63,33.33 209.63,57.63 216.99,57.63 216.99,33.33 224.99,33.33 224.99,27.44 
			201.64,27.44 		"/>
		<path class="st2" d="M259.73,48.64c0-10.1-14.92-7.74-14.92-12.99c0-1.89,1.33-2.79,3.1-2.75c1.98,0.04,3.35,1.2,3.48,3.14h7.96
			c-0.3-5.76-4.73-9.03-11.31-9.03c-6.32,0-11.01,3.18-11.01,8.9c-0.09,10.71,15.01,7.7,15.01,13.29c0,1.76-1.38,2.84-3.53,2.84
			c-2.06,0-3.53-1.12-3.74-3.44h-7.83c0.21,6.11,5.29,9.33,11.78,9.33C255.77,57.93,259.73,53.72,259.73,48.64z"/>
		<polygon class="st2" points="283.04,57.63 290.39,57.63 290.39,27.44 283.04,27.44 283.04,39.27 271.6,39.27 271.6,27.44 
			264.24,27.44 264.24,57.63 271.6,57.63 271.6,45.2 283.04,45.2 		"/>
		<path class="st2" d="M301.96,42.45c0-5.38,3.1-8.77,8-8.77c4.82,0,7.95,3.4,7.95,8.77c0,5.29-3.14,8.77-7.95,8.77
			C305.05,51.22,301.96,47.74,301.96,42.45z M325.39,42.45c0-9.07-6.84-15.44-15.44-15.44c-8.56,0-15.52,6.36-15.52,15.44
			s6.97,15.48,15.52,15.48C318.51,57.93,325.39,51.52,325.39,42.45z"/>
		<path class="st2" d="M352.48,37.16c0-5.55-3.7-9.72-11.09-9.72h-11.91v30.19h7.35V46.79h4.56
			C349.08,46.79,352.48,42.15,352.48,37.16z M336.83,40.94v-7.57h4c2.92,0,4.17,1.46,4.17,3.78c0,2.32-1.25,3.78-4.17,3.78H336.83z"
			/>
		<polygon class="st4" points="127.88,77.1 127.88,83.63 129.56,83.63 129.56,77.1 134.94,66.85 133.06,66.85 128.72,75.56 
			124.35,66.85 122.46,66.85 		"/>
		<path class="st4" d="M138.34,75.23c0-4.39,2.86-7.08,6.58-7.08s6.58,2.69,6.58,7.08c0,4.39-2.86,7.1-6.58,7.1
			S138.34,79.62,138.34,75.23z M153.22,75.23c0-5.02-3.58-8.57-8.3-8.57c-4.7,0-8.3,3.55-8.3,8.57c0,5.04,3.6,8.57,8.3,8.57
			C149.65,83.8,153.22,80.27,153.22,75.23z"/>
		<path class="st4" d="M156.22,77.39c0,4.44,2.69,6.41,6.1,6.41s6.1-1.97,6.1-6.41V66.85h-1.68v10.56c0,3.48-1.78,4.9-4.39,4.9
			s-4.44-1.42-4.44-4.9V66.85h-1.68V77.39z"/>
		<path class="st4" d="M172.16,66.85v16.78h1.68v-7.01h3.1l4.15,7.01h2.02l-4.32-7.13c2.83-0.53,4.13-2.47,4.13-4.78
			c0-2.76-1.82-4.87-5.71-4.87H172.16z M181.18,71.72c0,2.04-1.22,3.53-3.96,3.53h-3.38v-6.98h3.36
			C180.03,68.27,181.18,69.61,181.18,71.72z"/>
		<path class="st4" d="M193.78,75.23c0-4.39,2.86-7.08,6.58-7.08s6.58,2.69,6.58,7.08c0,4.39-2.86,7.1-6.58,7.1
			S193.78,79.62,193.78,75.23z M208.66,75.23c0-5.02-3.58-8.57-8.3-8.57c-4.7,0-8.3,3.55-8.3,8.57c0,5.04,3.6,8.57,8.3,8.57
			C205.09,83.8,208.66,80.27,208.66,75.23z"/>
		<polygon class="st4" points="222.7,66.85 222.7,80.94 213.42,66.85 211.74,66.85 211.74,83.63 213.42,83.63 213.42,69.52 
			222.7,83.63 224.38,83.63 224.38,66.85 		"/>
		<polygon class="st4" points="228.2,66.85 228.2,83.63 235.9,83.63 235.9,82.26 229.88,82.26 229.88,66.85 		"/>
		<rect x="238.3" y="66.85" class="st4" width="1.68" height="16.78"/>
		<polygon class="st4" points="254.77,66.85 254.77,80.94 245.48,66.85 243.8,66.85 243.8,83.63 245.48,83.63 245.48,69.52 
			254.77,83.63 256.45,83.63 256.45,66.85 		"/>
		<polygon class="st4" points="269.02,66.83 260.26,66.83 260.26,83.63 269.02,83.63 269.02,82.24 261.94,82.24 261.94,75.88 
			268.3,75.88 268.3,74.48 261.94,74.48 261.94,68.22 269.02,68.22 		"/>
		<path class="st4" d="M289.4,79.21c0-6.24-9.22-3.26-9.22-8.11c0-1.94,1.63-3.02,3.6-3c2.33,0.02,3.46,1.46,3.65,2.64h1.82
			c-0.29-2.3-2.21-4.08-5.4-4.08c-3.24,0-5.38,1.9-5.38,4.49c0,6.31,9.22,3.19,9.22,8.14c0,1.73-1.37,3.1-3.7,3.1
			c-2.71,0-3.74-1.68-3.89-3.07h-1.78c0.1,2.57,2.3,4.49,5.66,4.49C287.55,83.8,289.4,81.49,289.4,79.21z"/>
		<polygon class="st4" points="291.44,68.24 296.12,68.24 296.12,83.63 297.8,83.63 297.8,68.24 302.46,68.24 302.46,66.85 
			291.44,66.85 		"/>
		<path class="st4" d="M306.08,75.23c0-4.39,2.86-7.08,6.58-7.08s6.58,2.69,6.58,7.08c0,4.39-2.86,7.1-6.58,7.1
			S306.08,79.62,306.08,75.23z M320.96,75.23c0-5.02-3.58-8.57-8.3-8.57c-4.7,0-8.3,3.55-8.3,8.57c0,5.04,3.6,8.57,8.3,8.57
			C317.38,83.8,320.96,80.27,320.96,75.23z"/>
		<path class="st4" d="M324.03,66.85v16.78h1.68v-7.01h3.1l4.15,7.01h2.02l-4.32-7.13c2.83-0.53,4.13-2.47,4.13-4.78
			c0-2.76-1.82-4.87-5.71-4.87H324.03z M333.06,71.72c0,2.04-1.22,3.53-3.96,3.53h-3.38v-6.98h3.36
			C331.9,68.27,333.06,69.61,333.06,71.72z"/>
		<polygon class="st4" points="346.88,66.83 338.12,66.83 338.12,83.63 346.88,83.63 346.88,82.24 339.8,82.24 339.8,75.88 
			346.16,75.88 346.16,74.48 339.8,74.48 339.8,68.22 346.88,68.22 		"/>
	</g>
	<g>
		<path class="st2" d="M108.66,51.54H66.78c-0.59,0-1.17-0.07-1.73-0.2c-3.4-0.78-5.94-3.83-5.94-7.47c0-3.64,2.54-6.69,5.94-7.47
			c0.56-0.13,1.13-0.2,1.73-0.2h38.5c-1.57-4.14-3.63-8.03-6.12-11.61H65.05h-5.23c-4.23,0-7.67-3.43-7.67-7.67
			c0-4.23,3.43-7.67,7.67-7.67h5.23h17.89C77.54,5.95,71.5,3.56,65.05,2.31c-3.35-0.65-6.81-0.99-10.34-0.99
			c-10.35,0-20.02,2.91-28.24,7.95h5.25c3.58,0,6.58,2.45,7.43,5.76L56.4,63.15h8.66h43.19c0.36-2.53,0.56-5.12,0.56-7.75
			C108.8,54.11,108.75,52.82,108.66,51.54z"/>
		<path class="st2" d="M51.03,78.48v-0.03c-3.13,0-6.07-1.94-7.19-5.06L26.36,24.6H10.26c-6.07,8.74-9.63,19.36-9.63,30.8
			c0,29.87,24.22,54.09,54.09,54.09c3.54,0,6.99-0.34,10.34-0.99c17.11-3.31,31.34-14.69,38.58-30.02H65.05H51.03z M75.33,93.29
			c0,5.69-4.6,10.3-10.28,10.33l-0.05,0c-5.7,0-10.33-4.62-10.33-10.33c0-5.7,4.62-10.33,10.33-10.33l0.05,0
			C70.74,82.98,75.33,87.6,75.33,93.29z"/>
	</g>
</g>
</svg>
